<svg id="Layer_1"
 data-name="Layer 1"
 xmlns="http://www.w3.org/2000/svg" 
 viewBox="0 0 190 75">
 <defs>
 <style>.cls-1{fill:#db5c00;}</style>
 </defs>
 <title>site-logo-orig</title>
 <path d="M14.8,59.64H10.23l4.34-12.76H9.18L4.85,59.64H.29L6,42.94h14.5Z"/>
 <path d="M21,51.31c3.92-11.54,21.81-11.54,17.89,0S17.08,62.88,21,51.31Zm13.33,0c2-6-6.7-6-8.74,0S32.29,57.37,34.34,51.31Z"/>
 <path d="M39.47,59.64l5.66-16.7h4.54l-2.15,6.32h.33c4.46,0,5.32-3.2,6.38-6.32h4.58c-1.15,3.41-2.12,6.56-6.31,8.68L54.74,59l-.22.67h-5l-1.65-6.47a10.57,10.57,0,0,1-1.75.1L44,59.64Z"/>
 <path d="M68.63,57.54H61.76L60,59.64H55.66l.21-.62,13.38-16.3h1.92L73.52,59l-.22.62H68.94Zm-.73-8-3.46,4.39h4Z"/>
 <path d="M77.2,46.76l1.3-3.82h13l-1.3,3.82H85.9L81.53,59.64H77.12l4.37-12.88Z"/>
 <path d="M90.55,59.18l4.57-5.39L92.71,43.58l.22-.64h5l1.2,6.15h.13l5.07-6.15h4.84l-.22.64L95.21,59.64H90.4Z"/>
 <path d="M111.59,42.94h4.56L111.82,55.7H116l4.33-12.76h4.56L120.59,55.7h4.21l4.33-12.76h4.56L128,59.64H105.92Z"/>
 <path d="M132.49,59.64l5.66-16.7h4.54l-2.15,6.32h.33c4.46,0,5.32-3.2,6.38-6.32h4.59c-1.16,3.41-2.13,6.56-6.32,8.68L147.77,59l-.23.67h-5l-1.64-6.47a10.69,10.69,0,0,1-1.76.1L137,59.64Z"/>
 <path d="M151.72,59.66h-1.6l5.68-16.72h4.56l-2.78,8.18,11.62-8.25h1.62l-5.69,16.77h-4.61l2.79-8.21Z"/>
 <path d="M184.12,59.64h-4.56l2.27-6.71h-5.38l-2.27,6.71h-4.56l5.66-16.7h4.56L177.79,49h5.38l2.06-6.06h4.56Z"/>
 <path class="cls-1" d="M157.37,68.68a1.34,1.34,0,0,1,1.24-.89.63.63,0,0,1,.65.89,1.31,1.31,0,0,1-1.21.87C157.51,69.55,157.2,69.2,157.37,68.68Z"/>
 <path class="cls-1" d="M160.29,69.49l2.17-6.67h1.73l-.82,2.52h.13c1.7,0,2-1.27,2.43-2.52h1.76c-.45,1.36-.82,2.62-2.42,3.47l.86,2.93-.09.27h-1.89l-.63-2.58a5.16,5.16,0,0,1-.67,0L162,69.49Z"/>
 <path class="cls-1" d="M167.7,66.16c1.49-4.61,8.33-4.61,6.83,0S166.19,70.78,167.7,66.16Zm5.09,0c.78-2.4-2.56-2.4-3.34,0S172,68.58,172.79,66.16Z"/>
 <path class="cls-1" d="M182.8,62.8h.61l-2.18,6.69h-1.74l1-3L178.55,68h-.19l-.92-1.48-1,3h-1.74l2.17-6.69h.63l1.67,2.9Z"/>
 <path class="cls-1" d="M119.83,5.37l-.57,0,.51.12c10.81,2,17.88,11.78,16.79,25.23a36.85,36.85,0,0,1-1.09,6.38H139l.15-.53C144,19.48,135.08,5.57,119.83,5.37Z"/>
 <path class="cls-1" d="M114.44,5.47c-.81-.06-2.14,0-2.14,0l1.87.48C123.87,8.69,130,18.11,129,30.74a37.83,37.83,0,0,1-1.09,6.38h4c.06-.18.11-.36.16-.53C136.75,20.23,128.79,6.65,114.44,5.47Z"/>
 <path class="cls-1" d="M104.12,5.37H73.74a1.34,1.34,0,0,0-1.4,1.28,1.35,1.35,0,0,0,1.4,1.28H94.06a.77.77,0,0,1,0,1.54h-5.3a45.38,45.38,0,0,0-12.48,9.87h-20a1.29,1.29,0,0,0,0,2.57H78.6a.75.75,0,0,1,.55.73.77.77,0,0,1-.77.77H73a43.51,43.51,0,0,0-5.77,11.19H37.56a1.29,1.29,0,0,0-.4,2.51H76.05c0-.18.09-.36.14-.53,3.25-11.5,14.44-20.81,25-20.81s16.47,9.31,13.22,20.81l-.15.53h9.55l.15-.53C128.83,19.35,120,5.37,104.12,5.37Z"/>
 <path class="cls-1" d="M99.77,20.76a15.91,15.91,0,0,0-6.1,1.29s0,.06,0,.05a17.16,17.16,0,0,1,5.27.22c5.54,1.31,8.4,7,6.47,13.82-.1.32-.2.65-.31,1h4.56c.06-.18.11-.35.16-.53C112.3,27.85,107.8,20.76,99.77,20.76Z"/>
 </svg>